<?xml version="1.0" encoding="utf-8" ?>
<svg xmlns="http://www.w3.org/2000/svg" xmlns:xlink="http://www.w3.org/1999/xlink" width="150" height="52">
	<path fill="#009AF4" transform="translate(43 4.4917)" d="M1.386 13L1.386 3.2L5.7680001 3.2Q7.4200001 3.2 8.3439999 3.8510001Q9.2679996 4.5019999 9.2679996 5.7199998Q9.2679996 6.9239998 8.3859997 7.5749998Q7.5040002 8.2259998 6.0619998 8.2259998L6.3140001 7.7220001Q7.9520001 7.7220001 8.8479996 8.3800001Q9.7440004 9.0380001 9.7440004 10.284Q9.7440004 11.558 8.8059998 12.279Q7.868 13 6.0339999 13L1.386 13ZM3.178 11.6L5.9780002 11.6Q6.9299998 11.6 7.4200001 11.243Q7.9099998 10.886 7.9099998 10.144Q7.9099998 9.4020004 7.4200001 9.059Q6.9299998 8.7159996 5.9780002 8.7159996L3.178 8.7159996L3.178 11.6ZM3.178 7.3860002L5.6139998 7.3860002Q6.4959998 7.3860002 6.9580002 7.0289998Q7.4200001 6.6719999 7.4200001 6Q7.4200001 5.3000002 6.9580002 4.9499998Q6.4959998 4.5999999 5.6139998 4.5999999L3.178 4.5999999L3.178 7.3860002ZM16.323999 13.14Q15.204 13.14 14.245 12.769Q13.286 12.398 12.579 11.719Q11.872 11.04 11.48 10.116Q11.088 9.1920004 11.088 8.1000004Q11.088 7.0079999 11.48 6.0840001Q11.872 5.1599998 12.586 4.4809999Q13.3 3.802 14.252 3.431Q15.204 3.0599999 16.337999 3.0599999Q17.542 3.0599999 18.535999 3.473Q19.530001 3.8859999 20.216 4.698L19.040001 5.8039999Q18.507999 5.23 17.85 4.9429998Q17.191999 4.6560001 16.422001 4.6560001Q15.652 4.6560001 15.015 4.908Q14.378 5.1599998 13.909 5.6220002Q13.44 6.0840001 13.181 6.7140002Q12.922 7.3439999 12.922 8.1000004Q12.922 8.8559999 13.181 9.4860001Q13.44 10.116 13.909 10.578Q14.378 11.04 15.015 11.292Q15.652 11.544 16.422001 11.544Q17.191999 11.544 17.85 11.257Q18.507999 10.97 19.040001 10.382L20.216 11.502Q19.530001 12.3 18.535999 12.72Q17.542 13.14 16.323999 13.14ZM28.392 13L25.073999 8.2259998L26.544001 7.316L30.450001 13L28.392 13ZM21.91 13L21.91 3.2L23.702 3.2L23.702 13L21.91 13ZM23.156 8.8699999L23.156 7.302L26.459999 7.302L26.459999 8.8699999L23.156 8.8699999ZM26.712 8.3100004L25.046 8.0860004L28.392 3.2L30.323999 3.2L26.712 8.3100004ZM1.386 29L1.386 19.200001L5.7680001 19.200001Q7.4200001 19.200001 8.3439999 19.851Q9.2679996 20.502001 9.2679996 21.719999Q9.2679996 22.924 8.3859997 23.575001Q7.5040002 24.226 6.0619998 24.226L6.3140001 23.722Q7.9520001 23.722 8.8479996 24.379999Q9.7440004 25.038 9.7440004 26.284Q9.7440004 27.558001 8.8059998 28.278999Q7.868 29 6.0339999 29L1.386 29ZM3.178 27.6L5.9780002 27.6Q6.9299998 27.6 7.4200001 27.243Q7.9099998 26.886 7.9099998 26.143999Q7.9099998 25.402 7.4200001 25.059Q6.9299998 24.716 5.9780002 24.716L3.178 24.716L3.178 27.6ZM3.178 23.386L5.6139998 23.386Q6.4959998 23.386 6.9580002 23.028999Q7.4200001 22.672001 7.4200001 22Q7.4200001 21.299999 6.9580002 20.950001Q6.4959998 20.6 5.6139998 20.6L3.178 20.6L3.178 23.386ZM13.496 23.274L18.368 23.274L18.368 24.771999L13.496 24.771999L13.496 23.274ZM13.636 27.474001L19.166 27.474001L19.166 29L11.816 29L11.816 19.200001L18.969999 19.200001L18.969999 20.726L13.636 20.726L13.636 27.474001ZM21.195999 29L21.195999 19.200001L25.228001 19.200001Q26.530001 19.200001 27.461 19.620001Q28.392 20.040001 28.896 20.823999Q29.4 21.608 29.4 22.686001Q29.4 23.764 28.896 24.548Q28.392 25.332001 27.461 25.752001Q26.530001 26.172001 25.228001 26.172001L22.204 26.172001L23.016001 25.318001L23.016001 29L21.195999 29ZM23.016001 25.514L22.204 24.632L25.143999 24.632Q26.348 24.632 26.957001 24.121Q27.566 23.610001 27.566 22.686001Q27.566 21.747999 26.957001 21.243999Q26.348 20.74 25.143999 20.74L22.204 20.74L23.016001 19.844L23.016001 25.514ZM38.009998 19.200001L39.830002 19.200001L39.830002 29L38.009998 29L38.009998 19.200001ZM32.942001 29L31.122 29L31.122 19.200001L32.942001 19.200001L32.942001 29ZM38.150002 24.799999L32.787998 24.799999L32.787998 23.246L38.150002 23.246L38.150002 24.799999ZM41.327999 29L45.737999 19.200001L47.529999 19.200001L51.953999 29L50.049999 29L46.256001 20.166L46.984001 20.166L43.203999 29L41.327999 29ZM43.358002 26.732L43.848 25.304001L49.139999 25.304001L49.630001 26.732L43.358002 26.732ZM59.976002 28.16L59.976002 20.74L56.139999 20.74L56.07 22.476Q56.028 23.455999 55.951 24.330999Q55.874001 25.205999 55.713001 25.92Q55.551998 26.634001 55.271999 27.110001Q54.992001 27.586 54.585999 27.74L52.625999 27.459999Q53.158001 27.488001 53.500999 27.096001Q53.844002 26.704 54.040001 26.004Q54.236 25.304001 54.334 24.358999Q54.431999 23.414 54.473999 22.308001L54.585999 19.200001L61.768002 19.200001L61.768002 28.16L59.976002 28.16ZM52.290001 31.086L52.304001 27.459999L63.181999 27.459999L63.181999 31.086L61.501999 31.086L61.501999 29L53.984001 29L53.984001 31.086L52.290001 31.086ZM69.398003 29.139999Q68.278 29.139999 67.319 28.768999Q66.360001 28.398001 65.653 27.719Q64.945999 27.040001 64.554001 26.115999Q64.162003 25.191999 64.162003 24.1Q64.162003 23.007999 64.554001 22.084Q64.945999 21.16 65.660004 20.481001Q66.374001 19.802 67.325996 19.431Q68.278 19.059999 69.412003 19.059999Q70.615997 19.059999 71.610001 19.473Q72.603996 19.886 73.290001 20.698L72.113998 21.804001Q71.582001 21.23 70.924004 20.943001Q70.265999 20.656 69.496002 20.656Q68.725998 20.656 68.088997 20.908001Q67.452003 21.16 66.983002 21.622Q66.514 22.084 66.254997 22.714001Q65.996002 23.344 65.996002 24.1Q65.996002 24.856001 66.254997 25.486Q66.514 26.115999 66.983002 26.577999Q67.452003 27.040001 68.088997 27.292Q68.725998 27.544001 69.496002 27.544001Q70.265999 27.544001 70.924004 27.257Q71.582001 26.969999 72.113998 26.382L73.290001 27.502001Q72.603996 28.299999 71.610001 28.719999Q70.615997 29.139999 69.398003 29.139999ZM81.466003 29L78.148003 24.226L79.617996 23.316L83.524002 29L81.466003 29ZM74.984001 29L74.984001 19.200001L76.776001 19.200001L76.776001 29L74.984001 29ZM76.230003 24.870001L76.230003 23.302L79.533997 23.302L79.533997 24.870001L76.230003 24.870001ZM79.786003 24.309999L78.120003 24.086L81.466003 19.200001L83.398003 19.200001L79.786003 24.309999ZM84.783997 29L84.783997 19.200001L86.575996 19.200001L86.575996 26.158001L91.839996 19.200001L93.533997 19.200001L93.533997 29L91.741997 29L91.741997 22.056L86.477997 29L84.783997 29ZM96.292 29L96.292 19.200001L98.084 19.200001L98.084 26.158001L103.348 19.200001L105.042 19.200001L105.042 29L103.25 29L103.25 22.056L97.986 29L96.292 29ZM100.646 18.542Q99.386002 18.542 98.749001 18.01Q98.112 17.478001 98.098 16.511999L99.372002 16.511999Q99.386002 17.030001 99.714996 17.309999Q100.044 17.59 100.646 17.59Q101.248 17.59 101.591 17.309999Q101.934 17.030001 101.948 16.511999L103.208 16.511999Q103.194 17.478001 102.55 18.01Q101.906 18.542 100.646 18.542Z"/>
	<path fill="#009AF4" transform="translate(2.4228 0.107422)" d="M6.2206903 0.43561044C5.6941195 0.99626708 5.2225838 1.6940398 4.9772 2.2759893C4.5843968 3.2073834 4.8211951 3.395757 5.54318 2.7263176C6.341064 1.9863883 7.0476804 0.64407516 6.8940792 0.16009025C6.809165 -0.10744511 6.6819224 -0.055328961 6.2206903 0.43561044ZM18.290691 0.048989356C18.120176 0.10617118 18.163879 0.26552472 18.442921 0.60406518C18.927677 1.1921107 20.073288 1.6906914 20.958576 1.6989337C21.223192 1.7014236 21.281403 1.6735195 21.258564 1.5549487C21.225595 1.3840902 20.592302 0.88671154 20.000824 0.56723171C19.452101 0.27084792 18.494434 -0.019268226 18.290691 0.048989356ZM9.196291 0.27660024C8.3401089 0.59479219 7.2793264 1.3211559 7.2793264 1.5892923C7.2793264 1.8455802 8.6689482 1.6042318 9.2540741 1.2462015C9.7268972 0.95694393 10.284377 0.40796408 10.284377 0.23152468C10.284377 0.0081206234 9.8729429 0.025120435 9.196291 0.27660024ZM21.661242 0.15562543C21.632307 0.20233251 21.655233 0.47725183 21.712158 0.76650941C21.841976 1.4261609 22.302519 2.1355243 22.98501 2.7267466C23.548758 3.2151103 23.764177 3.2754691 23.764177 2.945085C23.764177 2.4705448 22.725203 0.75551951 22.113976 0.22096397C21.922338 0.053453866 21.740576 0.027180985 21.661242 0.15562543ZM3.2165837 3.0113683C2.7937303 3.7897623 2.5917909 4.3855352 2.4757102 5.1968989C2.3920839 5.7809091 2.4334676 6.0808125 2.5976293 6.0808125C2.744705 6.0808125 3.3668361 5.174232 3.6821947 4.5003281C4.1036744 3.5996716 4.1260839 2.3030348 3.7201443 2.3030348C3.6548059 2.3030348 3.4281394 2.6218278 3.2165837 3.0113683ZM24.612118 2.5391459C24.493547 2.8427417 24.570646 3.7659793 24.760824 4.3207116C24.902233 4.7330046 25.668694 5.9722872 25.86076 6.0991859C25.911844 6.1328425 26.00251 6.1115503 26.062355 6.0517068C26.433264 5.6808834 25.27692 2.3030348 24.779026 2.3030348C24.737986 2.3030348 24.662859 2.4092417 24.612118 2.5391459ZM7.5238523 2.5143325C6.8865242 2.6899135 5.828145 3.2578681 5.3675137 3.6713629C4.9918823 4.0085297 4.9594274 4.0641665 5.0849528 4.1559491C5.1629124 4.2129593 5.2925587 4.2467017 5.3729224 4.2309036C6.8303719 3.9443078 7.2386298 3.7662373 7.9018016 3.1277928C8.5709829 2.4836817 8.4351559 2.2631962 7.5238523 2.5143325ZM20.202162 2.4729486C20.119137 2.6073172 20.292398 2.8545048 20.771662 3.285429C21.299349 3.7597976 21.502405 3.8526108 22.549965 4.0985956C23.346046 4.2855101 23.506601 4.2798429 23.506601 4.0647669C23.506601 3.5312417 20.456217 2.0618577 20.202162 2.4729486ZM5.8626599 4.8902979C4.9850135 5.0949845 2.8282456 6.4323173 2.9264679 6.7109284C3.0090637 6.9450645 4.5045485 6.6498833 5.3299069 6.2365603C5.9660335 5.918025 6.6300645 5.1789541 6.5305543 4.9002571C6.4870243 4.7782521 6.3517103 4.7761917 5.8626599 4.8902979ZM21.961147 5.0028582C21.961147 5.278636 22.694206 6.0024238 23.23151 6.2569942C23.978823 6.6111612 25.348181 6.9351912 25.491566 6.7918072C25.620354 6.6630197 25.503931 6.4932766 25.02544 6.1124082C24.513638 5.705009 23.594692 5.2257471 22.834414 4.9696307C22.128399 4.7317166 21.961147 4.7381563 21.961147 5.0028582ZM0.46224004 6.7032871C0.18208346 7.1396208 0.042477548 7.8932009 0.092876546 8.6966658C0.14404827 9.5114641 0.386599 10.465868 0.55694246 10.522707C0.91445768 10.641878 1.1558921 9.1766157 1.0194628 7.7153025C0.91059411 6.5493431 0.74926531 6.2563076 0.46224004 6.7032871ZM27.715218 6.7647624C27.563507 7.0483532 27.431368 8.3138218 27.482197 8.9975138C27.539637 9.7689533 27.76012 10.545459 27.921879 10.545459C28.144596 10.545459 28.370062 9.8363523 28.528385 8.638196C28.58428 8.2152567 28.399769 7.2782822 28.172844 6.8320751C28.031864 6.5550952 27.842375 6.5271916 27.715218 6.7647624ZM23.649727 7.5976763C23.546869 7.700449 23.589455 8.3193178 23.73344 8.8146362C23.910309 9.4229441 24.179905 9.8526659 24.77894 10.480893C25.127439 10.846308 25.277433 10.951313 25.356853 10.885373C25.693333 10.606075 24.878963 8.6891966 24.036005 7.7765198C23.809166 7.5308781 23.745802 7.5016003 23.649727 7.5976763ZM4.3939624 7.9022169C3.9267201 8.4358282 3.551003 9.1147108 3.2690434 9.9347467C3.0292404 10.632433 3.0048563 10.77247 3.1058261 10.873353C3.2067101 10.974323 3.2784882 10.943156 3.5868921 10.664459C4.0264025 10.267449 4.5816498 9.4673328 4.7512202 8.9866962C4.8197355 8.7924843 4.8853312 8.4180546 4.8970079 8.1545553C4.9231949 7.5623884 4.7622099 7.4815955 4.3939624 7.9022169ZM2.2618361 7.906682C2.0782704 8.186924 1.917715 8.6757164 1.7046998 9.6029892C1.4730532 10.611226 1.4751997 12.027979 1.7083915 12.072539C1.920033 12.112979 2.3628058 11.351155 2.6564422 10.441398C2.8796744 9.7497215 2.9094677 9.545722 2.8812203 8.9035854C2.8369172 7.8951759 2.5607097 7.4506011 2.2618361 7.906682ZM25.832081 7.8321557C25.773954 7.9021301 25.686722 8.2268486 25.638212 8.5535402C25.510969 9.410924 25.644823 10.1275 26.111807 11.089459C26.614939 12.125858 26.70887 12.247863 26.888742 12.09864C26.998299 12.007716 27.026461 11.813419 27.025345 11.157459C27.02354 10.166137 26.877323 9.4240608 26.495596 8.4682827C26.208141 7.7487879 26.037283 7.5848827 25.832081 7.8321557ZM24.264904 11.272681C24.130707 11.567091 24.29607 12.475303 24.58902 13.053474C24.881369 13.630358 25.661222 14.576692 25.846249 14.578923C26.293571 14.584504 25.76511 12.91258 24.924212 11.661621C24.518959 11.058722 24.395496 10.985914 24.264904 11.272681ZM3.5844018 11.676646C2.8837097 12.760696 2.4265132 14.030802 2.5867252 14.448247C2.6394424 14.58562 2.6637404 14.588024 2.8371749 14.473231C2.9428668 14.403342 3.2333262 14.080257 3.4827454 13.755197C4.0092301 13.068929 4.2996898 12.264434 4.2579627 11.608645C4.2181239 10.983337 4.019619 11.003344 3.5844018 11.676646ZM27.862982 12.970964C27.044922 13.943398 26.442621 15.038354 26.204794 15.985116C26.044838 16.621929 26.101162 16.815111 26.400208 16.655069C26.699511 16.494944 27.763901 15.307863 28.038391 14.828171C28.484083 14.04909 28.714783 12.868793 28.469227 12.623237C28.310474 12.464484 28.269007 12.488267 27.862982 12.970964ZM0.01972492 12.80809C-0.09798722 13.277222 0.33182126 14.688823 0.75965458 15.238575C1.1590688 15.75158 2.1547709 16.727278 2.2790082 16.727278C2.778276 16.727278 2.0050335 14.705651 0.99825561 13.378793C0.40042222 12.590868 0.11597241 12.42499 0.01972492 12.80809ZM3.529882 15.059989C3.4497759 15.268883 3.5586448 16.300474 3.7204025 16.864996C4.0494127 18.013182 4.5588112 18.9596 4.8478971 18.9596C4.9666395 18.9596 4.9786601 18.818106 4.9440589 17.821974C4.9005284 16.570156 4.7869377 16.183363 4.2612252 15.496923C3.8187101 14.919268 3.6277609 14.805161 3.529882 15.059989ZM24.459803 15.227929C24.1271 15.606823 23.821445 16.203453 23.639769 16.828419C23.454399 17.466003 23.481617 19.002531 23.678318 19.002531C23.848232 19.002531 24.308607 18.305185 24.530981 17.710873C24.814486 16.952999 25.101768 15.387884 25.010242 15.099571C24.929365 14.844571 24.762112 14.883551 24.459803 15.227929ZM1.8939323 18.455095C1.7393868 18.60964 1.9163415 18.952389 2.4099426 19.454491C2.7814527 19.832525 2.9948113 19.96097 3.714478 20.23984C4.8402562 20.676086 5.116291 20.733868 5.1875539 20.548241C5.3110185 20.226444 3.7582655 18.996435 2.7529473 18.619514C2.0896897 18.370869 1.996104 18.352924 1.8939323 18.455095ZM26.013157 18.528677C25.307056 18.782732 24.509514 19.261566 23.896141 19.799641C22.971529 20.610746 23.229708 20.849007 24.510889 20.366825C25.654869 19.936157 26.288675 19.479132 26.606955 18.855196C26.876122 18.327595 26.75592 18.261484 26.013157 18.528677ZM5.9935937 18.700651C5.7173009 18.87151 6.5129533 20.61006 7.3430343 21.649292C7.4496703 21.782717 7.5369024 21.927647 7.5369024 21.971262C7.5369024 22.077984 7.1958718 22.07103 6.543776 21.950914C6.0894122 21.867201 5.9104834 21.874071 5.4233217 21.994272C4.7853923 22.151737 4.4459929 22.333588 4.4459929 22.518097C4.4459929 22.757814 5.0493217 22.866167 6.3778114 22.865229C7.5554481 22.864279 7.6975441 22.847363 8.0372868 22.666887C8.4056196 22.471216 8.4083681 22.46641 8.3491249 22.109753C8.2506456 21.516298 7.7504325 20.210474 7.459887 19.788136C7.1805029 19.382025 6.5351048 18.791059 6.2598424 18.689232C6.1745849 18.657722 6.054811 18.662872 5.9935937 18.700651ZM22.154072 18.733622C21.660557 18.997723 21.066242 19.707087 20.705894 20.462126C20.327517 21.254858 20.085823 22.16762 20.185419 22.427172C20.313263 22.760387 20.811758 22.86651 22.218723 22.860155C23.696177 22.853544 24.051289 22.774126 24.006212 22.460571C23.948772 22.061071 22.815353 21.843163 21.596249 21.997278C20.916935 22.083138 20.851683 21.989809 21.26054 21.516899C21.808233 20.88352 22.562157 19.350086 22.562157 18.86945C22.562157 18.671461 22.382198 18.61153 22.154072 18.733622Z" fill-rule="evenodd"/>
	<path fill="#009AF4" transform="translate(0 0.263762)" d="M16.141415 0L17.429293 0L17.429293 40.439392L32.71212 40.439392L32.71212 29.277777L34 29.277777L34 41.727272L0 41.727272L0 29.191919L1.030303 29.191919L1.030303 40.439392L16.141415 40.439392L16.141415 0Z"/>
	<path fill="#009AF4" transform="translate(2.06058 12.37)" d="M0 17.085859L1.2020203 17.085859L1.2020203 26.272728L11.848485 26.272728L11.848485 0L13.050506 0L13.050506 27.474749L0 27.474749L0 17.085859Z"/>
	<path fill="#009AF4" transform="matrix(-1 0 0 1 31.5959 12.37)" d="M0 17.085859L1.2020203 17.085859L1.2020203 26.272728L11.848485 26.272728L11.848485 0L13.050506 0L13.050506 27.474749L0 27.474749L0 17.085859Z"/>
	<path fill="#009AF4" transform="matrix(-1 0 0 1 29.6212 20.097)" d="M0 9.3585873L1.2020203 9.3585873L1.2020203 16.681253L8.0051851 16.681253L8.0051851 0L8.8434353 0L8.8434353 17.515154L0 17.515154L0 9.3585873Z"/>
	<path fill="#009AF4" transform="translate(4.12117 20.097)" d="M0 9.3585873L1.1903503 9.3585873L1.1903503 16.681253L7.9274645 16.681253L7.9274645 0L8.7575769 0L8.7575769 17.515154L0 17.515154L0 9.3585873Z"/>
</svg>
