<?xml version="1.0" encoding="utf-8" ?>
<svg xmlns="http://www.w3.org/2000/svg" xmlns:xlink="http://www.w3.org/1999/xlink" width="143" height="124">
	<path fill="#009AF4" transform="translate(-1.52588e-05 68.1063)" d="M57.07214 13L57.07214 3.2L61.45414 3.2Q63.10614 3.2 64.030144 3.8510001Q64.95414 4.5019999 64.95414 5.7199998Q64.95414 6.9239998 64.072144 7.5749998Q63.19014 8.2259998 61.748138 8.2259998L62.000141 7.7220001Q63.638142 7.7220001 64.534142 8.3800001Q65.430138 9.0380001 65.430138 10.284Q65.430138 11.558 64.492142 12.279Q63.554138 13 61.720139 13L57.07214 13ZM58.86414 11.6L61.664139 11.6Q62.616138 11.6 63.10614 11.243Q63.596142 10.886 63.596142 10.144Q63.596142 9.4020004 63.10614 9.059Q62.616138 8.7159996 61.664139 8.7159996L58.86414 8.7159996L58.86414 11.6ZM58.86414 7.3860002L61.30014 7.3860002Q62.18214 7.3860002 62.644138 7.0289998Q63.10614 6.6719999 63.10614 6Q63.10614 5.3000002 62.644138 4.9499998Q62.18214 4.5999999 61.30014 4.5999999L58.86414 4.5999999L58.86414 7.3860002ZM72.010139 13.14Q70.890137 13.14 69.931137 12.769Q68.972137 12.398 68.265137 11.719Q67.558144 11.04 67.166138 10.116Q66.774139 9.1920004 66.774139 8.1000004Q66.774139 7.0079999 67.166138 6.0840001Q67.558144 5.1599998 68.272141 4.4809999Q68.986137 3.802 69.938141 3.431Q70.890137 3.0599999 72.024139 3.0599999Q73.228142 3.0599999 74.222137 3.473Q75.216141 3.8859999 75.902138 4.698L74.726143 5.8039999Q74.194138 5.23 73.53614 4.9429998Q72.878143 4.6560001 72.108139 4.6560001Q71.338142 4.6560001 70.701141 4.908Q70.06414 5.1599998 69.595139 5.6220002Q69.126137 6.0840001 68.867142 6.7140002Q68.608139 7.3439999 68.608139 8.1000004Q68.608139 8.8559999 68.867142 9.4860001Q69.126137 10.116 69.595139 10.578Q70.06414 11.04 70.701141 11.292Q71.338142 11.544 72.108139 11.544Q72.878143 11.544 73.53614 11.257Q74.194138 10.97 74.726143 10.382L75.902138 11.502Q75.216141 12.3 74.222137 12.72Q73.228142 13.14 72.010139 13.14ZM84.07814 13L80.760139 8.2259998L82.230141 7.316L86.136139 13L84.07814 13ZM77.596138 13L77.596138 3.2L79.388138 3.2L79.388138 13L77.596138 13ZM78.84214 8.8699999L78.84214 7.302L82.146141 7.302L82.146141 8.8699999L78.84214 8.8699999ZM82.39814 8.3100004L80.73214 8.0860004L84.07814 3.2L86.010139 3.2L82.39814 8.3100004ZM19.188141 29L19.188141 19.200001L23.570141 19.200001Q25.222139 19.200001 26.146139 19.851Q27.070141 20.502001 27.070141 21.719999Q27.070141 22.924 26.188141 23.575001Q25.306141 24.226 23.86414 24.226L24.11614 23.722Q25.754141 23.722 26.650141 24.379999Q27.546141 25.038 27.546141 26.284Q27.546141 27.558001 26.608141 28.278999Q25.670139 29 23.83614 29L19.188141 29ZM20.980141 27.6L23.78014 27.6Q24.73214 27.6 25.222139 27.243Q25.712139 26.886 25.712139 26.143999Q25.712139 25.402 25.222139 25.059Q24.73214 24.716 23.78014 24.716L20.980141 24.716L20.980141 27.6ZM20.980141 23.386L23.41614 23.386Q24.29814 23.386 24.760139 23.028999Q25.222139 22.672001 25.222139 22Q25.222139 21.299999 24.760139 20.950001Q24.29814 20.6 23.41614 20.6L20.980141 20.6L20.980141 23.386ZM31.29814 23.274L36.170139 23.274L36.170139 24.771999L31.29814 24.771999L31.29814 23.274ZM31.438141 27.474001L36.96814 27.474001L36.96814 29L29.618139 29L29.618139 19.200001L36.772141 19.200001L36.772141 20.726L31.438141 20.726L31.438141 27.474001ZM38.998138 29L38.998138 19.200001L43.03014 19.200001Q44.332142 19.200001 45.263142 19.620001Q46.194141 20.040001 46.698139 20.823999Q47.202141 21.608 47.202141 22.686001Q47.202141 23.764 46.698139 24.548Q46.194141 25.332001 45.263142 25.752001Q44.332142 26.172001 43.03014 26.172001L40.006142 26.172001L40.818138 25.318001L40.818138 29L38.998138 29ZM40.818138 25.514L40.006142 24.632L42.94614 24.632Q44.150139 24.632 44.75914 24.121Q45.368141 23.610001 45.368141 22.686001Q45.368141 21.747999 44.75914 21.243999Q44.150139 20.74 42.94614 20.74L40.006142 20.74L40.818138 19.844L40.818138 25.514ZM55.812141 19.200001L57.632141 19.200001L57.632141 29L55.812141 29L55.812141 19.200001ZM50.744141 29L48.924141 29L48.924141 19.200001L50.744141 19.200001L50.744141 29ZM55.952141 24.799999L50.590141 24.799999L50.590141 23.246L55.952141 23.246L55.952141 24.799999ZM59.130138 29L63.540138 19.200001L65.332138 19.200001L69.756142 29L67.852142 29L64.058144 20.166L64.78614 20.166L61.006142 29L59.130138 29ZM61.160141 26.732L61.650139 25.304001L66.942139 25.304001L67.432137 26.732L61.160141 26.732ZM77.778137 28.16L77.778137 20.74L73.942139 20.74L73.872139 22.476Q73.830139 23.455999 73.753143 24.330999Q73.67614 25.205999 73.515137 25.92Q73.354141 26.634001 73.074142 27.110001Q72.794144 27.586 72.388138 27.74L70.428139 27.459999Q70.960136 27.488001 71.303139 27.096001Q71.646141 26.704 71.84214 26.004Q72.038139 25.304001 72.136139 24.358999Q72.234138 23.414 72.276138 22.308001L72.388138 19.200001L79.570137 19.200001L79.570137 28.16L77.778137 28.16ZM70.09214 31.086L70.10614 27.459999L80.984138 27.459999L80.984138 31.086L79.304138 31.086L79.304138 29L71.78614 29L71.78614 31.086L70.09214 31.086ZM87.200142 29.139999Q86.080139 29.139999 85.12114 28.768999Q84.16214 28.398001 83.455139 27.719Q82.748138 27.040001 82.35614 26.115999Q81.964142 25.191999 81.964142 24.1Q81.964142 23.007999 82.35614 22.084Q82.748138 21.16 83.462143 20.481001Q84.17614 19.802 85.128143 19.431Q86.080139 19.059999 87.214142 19.059999Q88.418137 19.059999 89.41214 19.473Q90.406143 19.886 91.09214 20.698L89.916138 21.804001Q89.38414 21.23 88.726143 20.943001Q88.068138 20.656 87.298141 20.656Q86.528137 20.656 85.891144 20.908001Q85.254143 21.16 84.785141 21.622Q84.316139 22.084 84.057137 22.714001Q83.798141 23.344 83.798141 24.1Q83.798141 24.856001 84.057137 25.486Q84.316139 26.115999 84.785141 26.577999Q85.254143 27.040001 85.891144 27.292Q86.528137 27.544001 87.298141 27.544001Q88.068138 27.544001 88.726143 27.257Q89.38414 26.969999 89.916138 26.382L91.09214 27.502001Q90.406143 28.299999 89.41214 28.719999Q88.418137 29.139999 87.200142 29.139999ZM99.268143 29L95.950142 24.226L97.420143 23.316L101.32614 29L99.268143 29ZM92.78614 29L92.78614 19.200001L94.57814 19.200001L94.57814 29L92.78614 29ZM94.032143 24.870001L94.032143 23.302L97.336143 23.302L97.336143 24.870001L94.032143 24.870001ZM97.588142 24.309999L95.922142 24.086L99.268143 19.200001L101.20014 19.200001L97.588142 24.309999ZM102.58614 29L102.58614 19.200001L104.37814 19.200001L104.37814 26.158001L109.64214 19.200001L111.33614 19.200001L111.33614 29L109.54414 29L109.54414 22.056L104.28014 29L102.58614 29ZM114.09414 29L114.09414 19.200001L115.88614 19.200001L115.88614 26.158001L121.15014 19.200001L122.84414 19.200001L122.84414 29L121.05214 29L121.05214 22.056L115.78814 29L114.09414 29ZM118.44814 18.542Q117.18814 18.542 116.55114 18.01Q115.91414 17.478001 115.90014 16.511999L117.17414 16.511999Q117.18814 17.030001 117.51714 17.309999Q117.84614 17.59 118.44814 17.59Q119.05014 17.59 119.39314 17.309999Q119.73614 17.030001 119.75014 16.511999L121.01014 16.511999Q120.99614 17.478001 120.35214 18.01Q119.70814 18.542 118.44814 18.542Z"/>
	<path fill="#009AF4" transform="translate(47.0163 0.142593)" d="M8.2565575 0.57817417C7.5576539 1.3223188 6.9317975 2.2484541 6.6061058 3.0208604C6.0847487 4.2570748 6.3990445 4.5070982 7.3573165 3.6185691C8.4163265 2.6364806 9.3541994 0.85486382 9.1503296 0.21248354C9.0376244 -0.14260904 8.8687391 -0.073436663 8.2565575 0.57817417ZM24.276752 0.065022267C24.050432 0.14091818 24.108438 0.35242394 24.4788 0.80175966C25.122206 1.5822568 26.642744 2.2440097 27.817764 2.2549498C28.168982 2.2582545 28.246244 2.2212179 28.215931 2.0638423C28.172171 1.8370662 27.331619 1.1769087 26.546564 0.75287163C25.81826 0.35948923 24.547174 -0.025574205 24.276752 0.065022267ZM12.205995 0.36712417C11.069607 0.7894519 9.6616583 1.7535353 9.6616583 2.1094255C9.6616583 2.4495897 11.506065 2.1292543 12.282688 1.6540502C12.910254 1.2701263 13.650183 0.54147989 13.650183 0.30729654C13.650183 0.010778288 13.104096 0.033341687 12.205995 0.36712417ZM28.750395 0.20655751C28.71199 0.26855057 28.742418 0.63344371 28.817972 1.0173676C28.990276 1.8929056 29.601545 2.834425 30.507397 3.6191385C31.255644 4.2673306 31.541565 4.3474431 31.541565 3.9089334C31.541565 3.2790885 30.162561 1.002781 29.351295 0.29327962C29.096941 0.0709479 28.85569 0.036076602 28.750395 0.20655751ZM4.2692866 3.9969091C3.7080443 5.0300508 3.4400158 5.8208046 3.2859447 6.897706C3.1749499 7.6728473 3.2298772 8.0709009 3.4477646 8.0709009C3.6429744 8.0709009 4.4687123 6.8676214 4.8872795 5.973166C5.4466987 4.7777486 5.4764419 3.056757 4.9376493 3.056757C4.8509274 3.056757 4.5500789 3.4798825 4.2692866 3.9969091ZM32.667011 3.370141C32.509636 3.7730958 32.611969 4.9984846 32.864388 5.734766C33.052074 6.2819915 34.069378 7.9268579 34.324303 8.0952873C34.392105 8.1399593 34.512444 8.1116982 34.591873 8.0322695C35.084171 7.5400858 33.549389 3.056757 32.888546 3.056757C32.834076 3.056757 32.734364 3.1977227 32.667011 3.370141ZM9.9862108 3.3372068C9.1403017 3.5702507 7.7355428 4.3240819 7.1241589 4.8729024C6.6255932 5.320415 6.5825171 5.3942604 6.7491236 5.5160813C6.8525972 5.5917492 7.024673 5.6365347 7.1313376 5.6155663C9.0657721 5.2351751 9.6076422 4.9988265 10.487852 4.1514363C11.37604 3.2965248 11.195759 3.0038803 9.9862108 3.3372068ZM26.813795 3.282279C26.703598 3.460623 26.933565 3.7887084 27.569677 4.3606629C28.270061 4.9902797 28.539574 5.1134682 29.929974 5.4399576C30.986589 5.6880436 31.199692 5.680522 31.199692 5.3950577C31.199692 4.6869235 27.150997 2.736649 26.813795 3.282279ZM7.7813535 6.4907627C6.6164765 6.7624383 3.7538557 8.5374441 3.8842235 8.9072371C3.9938509 9.2180004 5.9787683 8.8262138 7.074245 8.2776213C7.9185586 7.8548374 8.7999096 6.8738885 8.6678324 6.5039816C8.6100559 6.3420472 8.4304571 6.3393126 7.7813535 6.4907627ZM29.148451 6.640161C29.148451 7.0061936 30.121422 7.9668579 30.83457 8.3047428C31.826458 8.7748184 33.64397 9.204895 33.834282 9.0145855C34.005219 8.8436489 33.850693 8.6183538 33.215607 8.1128368C32.536304 7.5721073 31.31661 6.9359956 30.307514 6.5960593C29.37044 6.280282 29.148451 6.2888288 29.148451 6.640161ZM0.61351901 8.8970957C0.24167457 9.4762287 0.056379326 10.476437 0.12327258 11.542853C0.19119146 12.624313 0.51312268 13.891069 0.73921502 13.96651C1.2137355 14.124683 1.5341851 12.179879 1.353106 10.240316C1.2086074 8.6927691 0.99448007 8.3038311 0.61351901 8.8970957ZM36.785679 8.9786892C36.584312 9.355092 36.408932 11.034716 36.476395 11.942162C36.552631 12.966073 36.845276 13.996708 37.059971 13.996708C37.355579 13.996708 37.654835 13.05553 37.864971 11.465248C37.939159 10.903893 37.694263 9.6602707 37.39307 9.0680323C37.205952 8.7004042 36.954449 8.6633682 36.785679 8.9786892ZM31.389658 10.084194C31.253136 10.220602 31.30966 11.04201 31.500767 11.699432C31.735521 12.506824 32.093349 13.077183 32.888432 13.911012C33.350986 14.396016 33.550072 14.535387 33.655479 14.447867C34.102081 14.077163 33.021191 11.53294 31.902353 10.321568C31.601276 9.9955349 31.517178 9.9566755 31.389658 10.084194ZM5.8319902 10.488403C5.2118316 11.196651 4.7131524 12.097714 4.3389149 13.186126C4.0206308 14.112146 3.9882665 14.298013 4.1222811 14.431913C4.2561812 14.565928 4.3514509 14.524561 4.7607875 14.154654C5.3441377 13.627713 6.0811024 12.56574 6.306169 11.927804C6.3971076 11.670032 6.4841714 11.173061 6.4996696 10.823324C6.5344267 10.037357 6.3207555 9.9301233 5.8319902 10.488403ZM3.0020752 10.494329C2.7584333 10.866287 2.5453324 11.515048 2.262603 12.745792C1.9551446 14.084 1.9579935 15.964417 2.267503 16.023561C2.548409 16.077236 3.1360896 15.066088 3.5258255 13.858591C3.8221159 12.940546 3.8616598 12.669784 3.8241675 11.817492C3.7653654 10.479058 3.3987625 9.8889847 3.0020752 10.494329ZM34.28624 10.395412C34.209087 10.488288 34.093307 10.919277 34.028923 11.352887C33.860035 12.49087 34.037697 13.441961 34.657513 14.718745C35.325306 16.09433 35.449978 16.256264 35.688717 16.058205C35.834129 15.937524 35.871506 15.679638 35.870026 14.809C35.867634 13.493243 35.673561 12.508306 35.166904 11.239727C34.785374 10.28476 34.558598 10.067214 34.28624 10.395412ZM32.206165 14.961931C32.028049 15.352693 32.247532 16.558138 32.636356 17.325531C33.024384 18.091213 34.059464 19.347256 34.305042 19.350218C34.898762 19.357626 34.19735 17.138525 33.081249 15.47816C32.543365 14.677948 32.379498 14.581312 32.206165 14.961931ZM4.7574816 15.498103C3.8274717 16.936935 3.2206469 18.622711 3.4332922 19.176775C3.5032623 19.359108 3.5355122 19.362297 3.7657073 19.209936C3.9059892 19.117174 4.2915082 18.688353 4.6225557 18.256908C5.3213453 17.346043 5.7068648 16.278257 5.6514812 15.407847C5.5986047 14.577892 5.335134 14.604445 4.7574816 15.498103ZM36.9818 17.216017C35.896008 18.506702 35.096592 19.960009 34.78093 21.216621C34.568626 22.061846 34.643383 22.318251 35.040298 22.105833C35.437553 21.893301 36.850292 20.31772 37.214615 19.681038C37.806171 18.646984 38.112373 17.080406 37.786453 16.754488C37.575745 16.543779 37.520706 16.575346 36.9818 17.216017ZM0.026180364 16.999838C-0.13005584 17.622503 0.44041759 19.496084 1.0082695 20.225756C1.5384014 20.906654 2.8599703 22.201672 3.0248673 22.201672C3.6875322 22.201672 2.6612279 19.518421 1.3249582 17.757317C0.53146982 16.711525 0.15392712 16.491358 0.026180364 16.999838ZM4.6851192 19.988724C4.5787964 20.265984 4.7232952 21.635187 4.9379916 22.38446C5.3746781 23.908419 6.0507898 25.164576 6.4344859 25.164576C6.5920897 25.164576 6.6080437 24.976772 6.562119 23.654634C6.5043421 21.99313 6.3535757 21.47975 5.6558118 20.568655C5.0684729 19.801949 4.8150311 19.650497 4.6851192 19.988724ZM32.464851 20.211626C32.023262 20.714523 31.617575 21.506414 31.37644 22.335913C31.130404 23.182165 31.166529 25.221554 31.427607 25.221554C31.65313 25.221554 32.264172 24.295988 32.559322 23.507172C32.935612 22.501266 33.316914 20.423931 33.195435 20.04126C33.088085 19.702805 32.866096 19.754541 32.464851 20.211626ZM2.5137663 24.494959C2.3086421 24.700083 2.5435095 25.155005 3.1986532 25.821428C3.6917489 26.323185 3.9749341 26.493668 4.9301286 26.863802C6.4243441 27.442822 6.7907181 27.519512 6.885303 27.273136C7.0491743 26.846022 4.9882464 25.213463 3.6539142 24.713188C2.7735898 24.383167 2.6493762 24.359348 2.5137663 24.494959ZM34.526577 24.592621C33.589386 24.929823 32.53083 25.565365 31.716717 26.279539C30.489504 27.356098 30.832176 27.672333 32.532654 27.032347C34.051029 26.460733 34.892265 25.854134 35.314709 25.026003C35.671967 24.325731 35.512424 24.237984 34.526577 24.592621ZM7.9551387 24.820877C7.5884223 25.047653 8.6444702 27.355186 9.7462149 28.734531C9.8877506 28.911623 10.003531 29.103983 10.003531 29.161873C10.003531 29.303524 9.5508909 29.294292 8.6853809 29.134865C8.0823164 29.023756 7.8448286 29.032873 7.1982317 29.192415C6.3515248 29.401413 5.9010491 29.642778 5.9010491 29.887672C5.9010491 30.205843 6.7018309 30.349659 8.4651003 30.348412C10.028147 30.347151 10.216747 30.324697 10.667678 30.085159C11.156557 29.825449 11.160204 29.819069 11.081573 29.345688C10.950864 28.558012 10.286944 26.824827 9.9013109 26.264267C9.5304918 25.725246 8.673872 24.940876 8.3085232 24.805721C8.195363 24.763899 8.0363903 24.770737 7.9551387 24.820877ZM29.404514 24.864637C28.749485 25.215172 27.960669 26.156693 27.482388 27.158838C26.980175 28.21101 26.659382 29.422495 26.791573 29.766989C26.961256 30.209259 27.622896 30.350111 29.490324 30.341679C31.451309 30.332905 31.92264 30.227493 31.862812 29.811319C31.786573 29.281075 30.282217 28.99185 28.664129 29.196404C27.762495 29.310362 27.675886 29.186489 28.218554 28.558809C28.94549 27.718143 29.946156 25.682858 29.946156 25.044922C29.946156 24.782135 29.7073 24.702589 29.404514 24.864637Z" fill-rule="evenodd"/>
	<path fill="#009AF4" transform="translate(43.8003 0.3501)" d="M21.424072 0L23.13344 0L23.13344 53.674141L43.417934 53.674141L43.417934 38.859619L45.1273 38.859619L45.1273 55.383507L0 55.383507L0 38.745663L1.367494 38.745663L1.367494 53.674141L21.424072 53.674141L21.424072 0Z"/>
	<path fill="#009AF4" transform="translate(46.5355 16.4184)" d="M0 22.677608L1.5954096 22.677608L1.5954096 34.871098L15.726181 34.871098L15.726181 0L17.32159 0L17.32159 36.466507L0 36.466507L0 22.677608Z"/>
	<path fill="#009AF4" transform="matrix(-1 0 0 1 85.7365 16.4184)" d="M0 22.677608L1.5954096 22.677608L1.5954096 34.871098L15.726181 34.871098L15.726181 0L17.32159 0L17.32159 36.466507L0 36.466507L0 22.677608Z"/>
	<path fill="#009AF4" transform="matrix(-1 0 0 1 83.1154 26.6742)" d="M0 12.421406L1.5954099 12.421406L1.5954099 22.140587L10.625071 22.140587L10.625071 0L11.737659 0L11.737659 23.247402L0 23.247402L0 12.421406Z"/>
	<path fill="#009AF4" transform="translate(49.2702 26.6742)" d="M0 12.421406L1.5799205 12.421406L1.5799205 22.140587L10.521914 22.140587L10.521914 0L11.623701 0L11.623701 23.247402L0 23.247402L0 12.421406Z"/>
</svg>
