<?xml version="1.0" encoding="utf-8" ?>
<svg xmlns="http://www.w3.org/2000/svg" xmlns:xlink="http://www.w3.org/1999/xlink" width="12" height="21">
	<path fill="white" transform="matrix(-4.37114e-08 -1 1 -4.37114e-08 0.710022 19.2552)" d="M18.583677 0.41017574L18.175949 0L9.5054007 8.7607002C9.4314318 8.8351126 9.2456083 8.8351126 9.1337538 8.7607002L0.46380639 0L0.055476356 0.41017574C-0.018492119 0.52209687 -0.018492119 0.70843041 0.055476356 0.78284281L9.1337538 9.9156055C9.2456083 10.028131 9.4314318 10.028131 9.5054007 9.9156055L18.583677 0.78284281C18.69433 0.70843041 18.69433 0.52209687 18.583677 0.41017574Z" fill-rule="evenodd"/>
	<path fill="none" stroke="#009AF4" stroke-width="1" stroke-miterlimit="10" transform="matrix(-4.37114e-08 -1 1 -4.37114e-08 0.710022 19.2552)" d="M18.583677 0.41017574L18.175949 0L9.5054007 8.7607002C9.4314318 8.8351126 9.2456083 8.8351126 9.1337538 8.7607002L0.46380639 0L0.055476356 0.41017574C-0.018492119 0.52209687 -0.018492119 0.70843041 0.055476356 0.78284281L9.1337538 9.9156055C9.2456083 10.028131 9.4314318 10.028131 9.5054007 9.9156055L18.583677 0.78284281C18.69433 0.70843041 18.69433 0.52209687 18.583677 0.41017574Z" fill-rule="evenodd"/>
</svg>
