<?xml version="1.0" encoding="utf-8" ?>
<svg xmlns="http://www.w3.org/2000/svg" xmlns:xlink="http://www.w3.org/1999/xlink" width="35" height="35">
	<path fill="#F5F5F5" d="M35 17.5Q35 17.9296 34.97892 18.358685Q34.95784 18.787767 34.915733 19.2153Q34.873627 19.64283 34.810589 20.067781Q34.747551 20.492733 34.663742 20.914078Q34.579929 21.335423 34.475544 21.752148Q34.371162 22.168877 34.246456 22.579979Q34.12175 22.991081 33.977016 23.395569Q33.832291 23.800056 33.667889 24.196957Q33.503487 24.593857 33.319809 24.982212Q33.136131 25.370567 32.933617 25.749441Q32.731102 26.128315 32.510246 26.496796Q32.289387 26.865276 32.050713 27.222475Q31.812038 27.579678 31.556128 27.924736Q31.300213 28.269794 31.027679 28.601883Q30.755144 28.933968 30.46664 29.252281Q30.178139 29.570593 29.874367 29.874367Q29.570593 30.178139 29.252279 30.466642Q28.933968 30.755144 28.601883 31.027679Q28.269794 31.300213 27.924738 31.556126Q27.579678 31.812038 27.222477 32.050713Q26.865276 32.289387 26.496796 32.510246Q26.128315 32.731102 25.749441 32.933617Q25.370567 33.136131 24.982214 33.319809Q24.593859 33.503487 24.196959 33.667889Q23.80006 33.832291 23.395571 33.977016Q22.991083 34.121746 22.579981 34.246452Q22.168879 34.371159 21.752151 34.475544Q21.335426 34.579926 20.91408 34.663738Q20.492733 34.747551 20.067783 34.810585Q19.642832 34.873627 19.2153 34.915733Q18.787767 34.95784 18.358685 34.97892Q17.9296 35 17.5 35Q17.0704 35 16.641315 34.97892Q16.212233 34.95784 15.7847 34.915733Q15.357167 34.873627 14.932216 34.810589Q14.507264 34.747551 14.085917 34.663742Q13.664572 34.579929 13.247846 34.475544Q12.83112 34.371162 12.420017 34.246456Q12.008915 34.12175 11.604425 33.977016Q11.199938 33.832291 10.803038 33.667889Q10.406137 33.503487 10.017784 33.319809Q9.6294289 33.136131 9.250556 32.933617Q8.8716812 32.731102 8.5032005 32.510246Q8.1347198 32.289387 7.7775197 32.050713Q7.4203196 31.812038 7.0752611 31.556128Q6.7302027 31.300213 6.3981171 31.027679Q6.066031 30.755144 5.7477179 30.46664Q5.4294043 30.178139 5.1256309 29.874367Q4.8218575 29.570593 4.5333548 29.252279Q4.2448525 28.933968 3.9723167 28.601883Q3.6997807 28.269794 3.4438677 27.924738Q3.1879547 27.579678 2.9492812 27.222477Q2.7106078 26.865276 2.489749 26.496796Q2.2688899 26.128315 2.0663776 25.749441Q1.8638651 25.370567 1.680187 24.982214Q1.4965091 24.593859 1.3321079 24.196959Q1.1677068 23.80006 1.0229788 23.395571Q0.87825054 22.991083 0.75354397 22.579981Q0.62883741 22.168879 0.52445292 21.752151Q0.42006844 21.335426 0.33625752 20.91408Q0.25244656 20.492733 0.18941103 20.067783Q0.12637551 19.642832 0.084267266 19.2153Q0.042159025 18.787767 0.021079512 18.358685Q0 17.9296 0 17.5Q0 17.0704 0.021079512 16.641315Q0.042159025 16.212233 0.084267266 15.7847Q0.12637551 15.357167 0.18941103 14.932216Q0.25244656 14.507264 0.33625752 14.085917Q0.42006844 13.664572 0.52445292 13.247846Q0.62883741 12.83112 0.75354397 12.420017Q0.87825054 12.008915 1.0229787 11.604425Q1.1677068 11.199938 1.3321079 10.803038Q1.4965091 10.406137 1.680187 10.017784Q1.8638651 9.6294289 2.0663776 9.250556Q2.2688899 8.8716812 2.489749 8.5032005Q2.7106078 8.1347198 2.9492812 7.7775197Q3.1879547 7.4203196 3.4438677 7.0752611Q3.6997807 6.7302027 3.9723167 6.3981171Q4.2448525 6.066031 4.5333548 5.7477179Q4.8218575 5.4294043 5.1256309 5.1256309Q5.4294043 4.8218575 5.7477179 4.5333548Q6.066031 4.2448525 6.3981171 3.9723167Q6.7302027 3.6997807 7.0752606 3.4438677Q7.4203196 3.1879547 7.7775192 2.9492812Q8.1347189 2.7106078 8.5032005 2.489749Q8.8716812 2.2688899 9.250556 2.0663776Q9.6294298 1.8638651 10.017784 1.680187Q10.406139 1.4965091 10.803039 1.3321079Q11.199938 1.1677068 11.604426 1.0229788Q12.008915 0.87825054 12.420018 0.75354397Q12.83112 0.62883741 13.247846 0.52445292Q13.664572 0.42006844 14.085918 0.33625752Q14.507265 0.25244656 14.932217 0.18941103Q15.357168 0.12637551 15.7847 0.084267266Q16.212233 0.042159025 16.641315 0.021079512Q17.0704 0 17.5 0Q17.9296 0 18.358685 0.021079512Q18.787767 0.042159025 19.2153 0.084267266Q19.64283 0.12637551 20.067781 0.18941103Q20.492733 0.25244656 20.914078 0.33625752Q21.335423 0.42006844 21.752148 0.52445292Q22.168877 0.62883741 22.579979 0.75354397Q22.991081 0.87825054 23.395569 1.0229787Q23.800056 1.1677068 24.196957 1.3321079Q24.593857 1.4965091 24.982212 1.680187Q25.370567 1.8638651 25.749441 2.0663776Q26.128315 2.2688899 26.496796 2.489749Q26.865276 2.7106078 27.222475 2.9492812Q27.579678 3.1879547 27.924736 3.4438677Q28.269794 3.6997807 28.601883 3.9723167Q28.933968 4.2448525 29.252281 4.5333548Q29.570593 4.8218575 29.874367 5.1256309Q30.178139 5.4294043 30.466642 5.7477179Q30.755144 6.066031 31.027679 6.3981171Q31.300213 6.7302027 31.556126 7.0752606Q31.812038 7.4203196 32.050713 7.7775192Q32.289387 8.1347189 32.510246 8.5032005Q32.731102 8.8716812 32.933617 9.250556Q33.136131 9.6294298 33.319809 10.017784Q33.503487 10.406139 33.667889 10.803039Q33.832291 11.199938 33.977016 11.604426Q34.121746 12.008915 34.246452 12.420018Q34.371159 12.83112 34.475544 13.247846Q34.579926 13.664572 34.663738 14.085918Q34.747551 14.507265 34.810585 14.932217Q34.873627 15.357168 34.915733 15.7847Q34.95784 16.212233 34.97892 16.641315Q35 17.0704 35 17.5Z"/>
	<path fill="none" stroke="#009AF4" stroke-width="2" stroke-miterlimit="5" d="M35 17.5Q35 17.9296 34.97892 18.358685Q34.95784 18.787767 34.915733 19.2153Q34.873627 19.64283 34.810589 20.067781Q34.747551 20.492733 34.663742 20.914078Q34.579929 21.335423 34.475544 21.752148Q34.371162 22.168877 34.246456 22.579979Q34.12175 22.991081 33.977016 23.395569Q33.832291 23.800056 33.667889 24.196957Q33.503487 24.593857 33.319809 24.982212Q33.136131 25.370567 32.933617 25.749441Q32.731102 26.128315 32.510246 26.496796Q32.289387 26.865276 32.050713 27.222475Q31.812038 27.579678 31.556128 27.924736Q31.300213 28.269794 31.027679 28.601883Q30.755144 28.933968 30.46664 29.252281Q30.178139 29.570593 29.874367 29.874367Q29.570593 30.178139 29.252279 30.466642Q28.933968 30.755144 28.601883 31.027679Q28.269794 31.300213 27.924738 31.556126Q27.579678 31.812038 27.222477 32.050713Q26.865276 32.289387 26.496796 32.510246Q26.128315 32.731102 25.749441 32.933617Q25.370567 33.136131 24.982214 33.319809Q24.593859 33.503487 24.196959 33.667889Q23.80006 33.832291 23.395571 33.977016Q22.991083 34.121746 22.579981 34.246452Q22.168879 34.371159 21.752151 34.475544Q21.335426 34.579926 20.91408 34.663738Q20.492733 34.747551 20.067783 34.810585Q19.642832 34.873627 19.2153 34.915733Q18.787767 34.95784 18.358685 34.97892Q17.9296 35 17.5 35Q17.0704 35 16.641315 34.97892Q16.212233 34.95784 15.7847 34.915733Q15.357167 34.873627 14.932216 34.810589Q14.507264 34.747551 14.085917 34.663742Q13.664572 34.579929 13.247846 34.475544Q12.83112 34.371162 12.420017 34.246456Q12.008915 34.12175 11.604425 33.977016Q11.199938 33.832291 10.803038 33.667889Q10.406137 33.503487 10.017784 33.319809Q9.6294289 33.136131 9.250556 32.933617Q8.8716812 32.731102 8.5032005 32.510246Q8.1347198 32.289387 7.7775197 32.050713Q7.4203196 31.812038 7.0752611 31.556128Q6.7302027 31.300213 6.3981171 31.027679Q6.066031 30.755144 5.7477179 30.46664Q5.4294043 30.178139 5.1256309 29.874367Q4.8218575 29.570593 4.5333548 29.252279Q4.2448525 28.933968 3.9723167 28.601883Q3.6997807 28.269794 3.4438677 27.924738Q3.1879547 27.579678 2.9492812 27.222477Q2.7106078 26.865276 2.489749 26.496796Q2.2688899 26.128315 2.0663776 25.749441Q1.8638651 25.370567 1.680187 24.982214Q1.4965091 24.593859 1.3321079 24.196959Q1.1677068 23.80006 1.0229788 23.395571Q0.87825054 22.991083 0.75354397 22.579981Q0.62883741 22.168879 0.52445292 21.752151Q0.42006844 21.335426 0.33625752 20.91408Q0.25244656 20.492733 0.18941103 20.067783Q0.12637551 19.642832 0.084267266 19.2153Q0.042159025 18.787767 0.021079512 18.358685Q0 17.9296 0 17.5Q0 17.0704 0.021079512 16.641315Q0.042159025 16.212233 0.084267266 15.7847Q0.12637551 15.357167 0.18941103 14.932216Q0.25244656 14.507264 0.33625752 14.085917Q0.42006844 13.664572 0.52445292 13.247846Q0.62883741 12.83112 0.75354397 12.420017Q0.87825054 12.008915 1.0229787 11.604425Q1.1677068 11.199938 1.3321079 10.803038Q1.4965091 10.406137 1.680187 10.017784Q1.8638651 9.6294289 2.0663776 9.250556Q2.2688899 8.8716812 2.489749 8.5032005Q2.7106078 8.1347198 2.9492812 7.7775197Q3.1879547 7.4203196 3.4438677 7.0752611Q3.6997807 6.7302027 3.9723167 6.3981171Q4.2448525 6.066031 4.5333548 5.7477179Q4.8218575 5.4294043 5.1256309 5.1256309Q5.4294043 4.8218575 5.7477179 4.5333548Q6.066031 4.2448525 6.3981171 3.9723167Q6.7302027 3.6997807 7.0752606 3.4438677Q7.4203196 3.1879547 7.7775192 2.9492812Q8.1347189 2.7106078 8.5032005 2.489749Q8.8716812 2.2688899 9.250556 2.0663776Q9.6294298 1.8638651 10.017784 1.680187Q10.406139 1.4965091 10.803039 1.3321079Q11.199938 1.1677068 11.604426 1.0229788Q12.008915 0.87825054 12.420018 0.75354397Q12.83112 0.62883741 13.247846 0.52445292Q13.664572 0.42006844 14.085918 0.33625752Q14.507265 0.25244656 14.932217 0.18941103Q15.357168 0.12637551 15.7847 0.084267266Q16.212233 0.042159025 16.641315 0.021079512Q17.0704 0 17.5 0Q17.9296 0 18.358685 0.021079512Q18.787767 0.042159025 19.2153 0.084267266Q19.64283 0.12637551 20.067781 0.18941103Q20.492733 0.25244656 20.914078 0.33625752Q21.335423 0.42006844 21.752148 0.52445292Q22.168877 0.62883741 22.579979 0.75354397Q22.991081 0.87825054 23.395569 1.0229787Q23.800056 1.1677068 24.196957 1.3321079Q24.593857 1.4965091 24.982212 1.680187Q25.370567 1.8638651 25.749441 2.0663776Q26.128315 2.2688899 26.496796 2.489749Q26.865276 2.7106078 27.222475 2.9492812Q27.579678 3.1879547 27.924736 3.4438677Q28.269794 3.6997807 28.601883 3.9723167Q28.933968 4.2448525 29.252281 4.5333548Q29.570593 4.8218575 29.874367 5.1256309Q30.178139 5.4294043 30.466642 5.7477179Q30.755144 6.066031 31.027679 6.3981171Q31.300213 6.7302027 31.556126 7.0752606Q31.812038 7.4203196 32.050713 7.7775192Q32.289387 8.1347189 32.510246 8.5032005Q32.731102 8.8716812 32.933617 9.250556Q33.136131 9.6294298 33.319809 10.017784Q33.503487 10.406139 33.667889 10.803039Q33.832291 11.199938 33.977016 11.604426Q34.121746 12.008915 34.246452 12.420018Q34.371159 12.83112 34.475544 13.247846Q34.579926 13.664572 34.663738 14.085918Q34.747551 14.507265 34.810585 14.932217Q34.873627 15.357168 34.915733 15.7847Q34.95784 16.212233 34.97892 16.641315Q35 17.0704 35 17.5Z"/>
	<path fill="#009AF4" transform="translate(7.77772 11.6667)" d="M3.2987971 13.125L0 13.125L0 0L12.703877 0C13.639707 0.046791445 15.539439 0.61764699 15.651739 2.5267379L15.651739 6.2466578C15.581552 7.0421124 14.963904 8.6751337 13.054813 8.8435831L16.143049 13.125L12.493317 13.125L9.6156425 8.8435831L3.2987971 8.8435831L3.2987971 13.125Z"/>
	<path fill="#F5F5F5" transform="translate(11.0765 14.5444)" d="M0 3.018048L0 0L8.2118988 0C8.4692516 0 8.9979954 0.098262034 9.0541449 0.49131015L9.0541449 2.4565508C9.0541449 2.6671121 8.9839573 3.018048 8.2118988 3.018048L0 3.018048Z"/>
	<path fill="#009AF4" transform="translate(24.3055 7.77778)" d="M4.8611112 2.4305556Q4.8611116 2.5499611 4.8494072 2.6687918Q4.8377037 2.7876222 4.8144083 2.9047332Q4.7911139 3.0218444 4.7564521 3.1361084Q4.7217903 3.2503724 4.6760955 3.3606887Q4.6304011 3.471005 4.5741138 3.5763113Q4.5178266 3.6816175 4.4514885 3.7808993Q4.3851504 3.8801818 4.3094001 3.9724836Q4.2336502 4.064785 4.1492176 4.1492176Q4.064785 4.2336502 3.9724834 4.3094006Q3.8801818 4.38515 3.7808993 4.451488Q3.6816175 4.5178261 3.5763111 4.5741138Q3.471005 4.6304011 3.3606884 4.6760955Q3.2503724 4.7217903 3.1361084 4.7564516Q3.0218444 4.7911139 2.9047332 4.8144083Q2.7876222 4.8377037 2.6687918 4.8494072Q2.5499611 4.8611112 2.4305556 4.8611112Q2.3111501 4.8611112 2.1923196 4.8494072Q2.073489 4.8377037 1.9563776 4.8144083Q1.8392665 4.7911139 1.7250025 4.7564521Q1.6107385 4.7217903 1.500422 4.6760955Q1.3901057 4.6304011 1.2847996 4.5741138Q1.1794932 4.5178266 1.0802112 4.4514885Q0.98092914 4.3851504 0.88862741 4.3094001Q0.79632568 4.2336502 0.7118932 4.1492176Q0.62746072 4.064785 0.55171067 3.9724834Q0.47596061 3.8801818 0.40962243 3.7808993Q0.34328431 3.6816175 0.2869969 3.5763111Q0.23070952 3.471005 0.18501499 3.3606884Q0.13932049 3.2503724 0.10465889 3.1361084Q0.069997296 3.0218444 0.046702433 2.9047332Q0.023407575 2.7876222 0.011703787 2.6687918Q0 2.5499611 0 2.4305556Q0 2.3111501 0.011703787 2.1923196Q0.023407575 2.073489 0.046702433 1.9563776Q0.069997296 1.8392665 0.10465889 1.7250025Q0.13932049 1.6107385 0.18501499 1.500422Q0.23070952 1.3901057 0.2869969 1.2847996Q0.34328431 1.1794932 0.40962243 1.0802112Q0.47596061 0.98092914 0.55171067 0.88862741Q0.62746072 0.79632568 0.7118932 0.7118932Q0.79632568 0.62746072 0.88862741 0.55171067Q0.98092908 0.47596061 1.080211 0.40962243Q1.1794932 0.34328431 1.2847996 0.2869969Q1.3901057 0.23070952 1.500422 0.18501499Q1.6107385 0.13932049 1.7250024 0.10465889Q1.8392664 0.069997296 1.9563775 0.046702433Q2.073489 0.023407575 2.1923194 0.011703787Q2.3111501 0 2.4305556 0Q2.5499611 0 2.6687918 0.011703787Q2.7876222 0.023407575 2.9047332 0.046702433Q3.0218444 0.069997296 3.1361084 0.10465889Q3.2503724 0.13932049 3.3606887 0.18501499Q3.471005 0.23070952 3.5763113 0.2869969Q3.6816175 0.34328431 3.7808993 0.40962243Q3.8801818 0.47596061 3.9724836 0.55171067Q4.064785 0.62746072 4.1492176 0.7118932Q4.2336502 0.79632568 4.3094006 0.88862741Q4.38515 0.98092908 4.451488 1.080211Q4.5178261 1.1794932 4.5741138 1.2847996Q4.6304011 1.3901057 4.6760955 1.500422Q4.7217903 1.6107385 4.7564516 1.7250024Q4.7911139 1.8392664 4.8144083 1.9563775Q4.8377037 2.073489 4.8494072 2.1923194Q4.8611116 2.3111501 4.8611112 2.4305556Z"/>
</svg>
