<?xml version="1.0" encoding="UTF-8"?>
<svg width="21px" height="22px" viewBox="0 0 21 22" version="1.1" xmlns="http://www.w3.org/2000/svg" xmlns:xlink="http://www.w3.org/1999/xlink">
    <title>Снимок экрана 2022-10-16 в 15.41 1 (Traced)</title>
    <g id="test" stroke="none" stroke-width="1" fill="none" fill-rule="evenodd">
        <g id="desktop-/-one-event" transform="translate(-1141, -30)" fill="#009AF4">
            <g id="header" transform="translate(0, -7)">
                <g id="Group" transform="translate(27, 0)">
                    <g id="menu" transform="translate(285, 27.3843)">
                        <g id="button" transform="translate(818, 0)">
                            <path d="M23.8899763,10.044496 C27.4302487,10.3380036 30.4554933,12.7291729 31.570444,16.1151208 C31.6911374,16.4816209 31.8407972,17.0813485 31.9029928,17.4478486 C32.0011911,18.0267137 32.0126957,18.2421548 31.9903545,19.0881292 C31.9713517,19.807802 31.9355547,20.201315 31.8532777,20.5955973 C31.2271098,23.5959258 29.154418,26.0397385 26.3040497,27.1384185 C25.8314964,27.3205409 25.0707172,27.5223451 24.4549239,27.6288608 C23.9585914,27.7147192 22.3943011,27.7159494 21.8612983,27.6309112 C20.5545221,27.4223393 19.1182181,26.8618252 18.1891353,26.1978707 L17.9066617,25.9959636 L15.5184724,28.369652 C13.5142424,30.3616695 13.0848813,30.7643071 12.8478086,30.8740521 C11.9729095,31.2789962 10.9965264,30.6594309 11.0000093,29.7014562 C11.0020732,29.1356109 10.9959092,29.1430964 13.5950296,26.5455593 C14.907147,25.2342067 15.9807031,24.1451117 15.9807031,24.1253258 C15.9807031,24.1055399 15.8522536,23.8927654 15.6953008,23.6524131 C14.4082979,21.6817705 13.9776027,19.1690148 14.5263727,16.8327435 C14.9559899,15.0038825 16.0128009,13.2880986 17.4407842,12.101151 C18.8923411,10.8946226 20.5599664,10.2098567 22.4544427,10.0425481 C23.1006919,9.98544586 23.1789635,9.98554848 23.8899763,10.044496 Z M22.1606185,12.7318387 C20.2156566,13.04667 18.5047368,14.2828769 17.6140706,16.0169606 C17.1199465,16.9789847 16.9309461,17.7719581 16.9309461,18.883094 C16.9309461,19.7310162 17.0076758,20.2014171 17.2685277,20.9528703 C18.1867224,23.5976681 20.9432578,25.3561503 23.7165878,25.0663334 C27.7713735,24.6425773 30.3399873,20.6834035 29.0416853,16.858373 C28.426611,15.0462225 26.9424411,13.5856556 25.085046,12.9646046 C24.1917092,12.6658686 23.1032087,12.5792414 22.1606185,12.7318387 Z" id="Снимок-экрана-2022-10-16-в-15.41-1-(Traced)" transform="translate(21.5, 20.5) scale(-1, 1) translate(-21.5, -20.5)"></path>
                        </g>
                    </g>
                </g>
            </g>
        </g>
    </g>
</svg>