<?xml version="1.0" encoding="UTF-8"?>
<svg width="35px" height="35px" viewBox="0 0 35 35" version="1.1" xmlns="http://www.w3.org/2000/svg" xmlns:xlink="http://www.w3.org/1999/xlink">
    <title>Group 160</title>
    <g id="test" stroke="none" stroke-width="1" fill="none" fill-rule="evenodd">
        <g id="desktop-/-one-event" transform="translate(-395, -2067)">
            <g id="footer" transform="translate(29, 2017)">
                <g id="social-block" transform="translate(256, 49)">
                    <g id="Group-160" transform="translate(110, 1)">
                        <circle id="Ellipse-27" stroke="#009AF4" fill="#F5F5F5" fill-rule="nonzero" cx="17.5" cy="17.5" r="17"></circle>
                        <path d="M23.1459782,10.0265006 C22.8591664,10.1143057 7.38033613,16.2138866 7.28006668,16.2786006 C7.06935456,16.4145885 6.951897,16.7258586 7.01878763,16.9709387 C7.06280512,17.1321824 7.20479809,17.3181246 7.33758196,17.3883818 C7.3924376,17.4174096 8.35593532,17.7877524 9.47868053,18.2113946 C10.601459,18.6350039 11.5256598,18.9871091 11.5324752,18.993833 C11.5392906,19.000557 11.8058558,19.9824514 12.1248164,21.1758391 C12.4438102,22.369194 12.7220114,23.378674 12.7430228,23.4190505 C12.9077892,23.7357325 13.3251576,23.8764101 13.6376684,23.7206439 C13.6833815,23.697848 14.2418116,23.3095648 14.8786357,22.8577805 L16.0364559,22.0364073 L16.3414526,22.2432428 C17.4023605,22.9628374 20.2966764,24.8901533 20.3902302,24.9393202 C20.4625399,24.9773351 20.5763742,24.9990493 20.7078615,25 C20.8828011,25.0011157 20.9338667,24.9868807 21.0569428,24.9026837 C21.1439471,24.8431848 21.2302535,24.7456383 21.2746367,24.6566852 C21.3727784,24.4600833 24.0243005,10.7615112 24,10.5776028 C23.9477021,10.1858748 23.5222879,9.91127495 23.1459782,10.0265006 Z M20.1535535,12.7626267 C20.0348658,12.8774587 18.5314559,14.3031677 16.812646,15.9308575 C13.1769143,19.3738191 13.1876861,19.3632905 13.1559695,19.5057072 C13.1429372,19.5642876 13.1212277,19.599711 13.1077632,19.5843935 C13.0942654,19.569076 13.0033044,19.2561663 12.9055949,18.8890054 C12.7176894,18.1831538 12.6396285,18.0179739 12.4475008,17.9199681 C12.3955708,17.8934659 11.7419575,17.6413663 10.99499,17.3597145 C10.2480558,17.0780627 9.61492201,16.8354755 9.58805937,16.82065 C9.55517924,16.8024789 10.5078054,16.4132436 12.5110334,15.6264094 C14.1454985,14.984419 16.5674579,14.0318478 17.8931358,13.5095439 C19.2188136,12.9872728 20.3182866,12.5585465 20.3364056,12.5568737 C20.3545246,12.5551681 20.2722411,12.6477618 20.1535535,12.7626267 Z M22.2415581,12.7751891 C22.2248355,12.8608621 21.7656444,15.2372724 21.2211773,18.056054 C20.676677,20.8748356 20.223104,23.189124 20.2131967,23.1989312 C20.1898249,23.2219894 14.8667672,19.6626862 14.8768074,19.6307064 C14.8867479,19.598989 22.2255668,12.6241789 22.2518643,12.6214566 C22.2629351,12.6203414 22.258314,12.689516 22.2415581,12.7751891 Z M14.1154444,20.753739 C14.5097401,21.0153173 14.8320584,21.2367159 14.831726,21.2457359 C14.8305624,21.2763381 13.7675265,22.0079706 13.7497067,21.9904227 C13.7399657,21.9808124 13.6281268,21.5842297 13.5011609,21.1091575 C13.3741951,20.6340525 13.2611592,20.2158223 13.2500218,20.1797426 C13.2322353,20.1221789 13.2400816,20.1241797 13.3141201,20.1961425 C13.3605313,20.2412422 13.7211156,20.4921606 14.1154444,20.753739 Z" id="87413-1-(Traced)" fill="#009AF4"></path>
                    </g>
                </g>
            </g>
        </g>
    </g>
</svg>