<?xml version="1.0" encoding="utf-8" ?>
<svg xmlns="http://www.w3.org/2000/svg" xmlns:xlink="http://www.w3.org/1999/xlink" width="37" height="36">
	<path fill="#009AF4" transform="translate(0.0247192 0.0344238)" d="M15.277986 0.10100642C11.381142 0.60990101 7.8260908 2.3559842 5.0926256 5.1036649C2.2825742 7.928369 0.49717107 11.641396 0.074124351 15.540708C-0.024708116 16.451204 -0.024708116 18.538132 0.074124351 19.448629C0.76055413 25.774982 4.9373384 31.306084 10.850729 33.719776C13.021979 34.605984 15.069088 35 17.502628 35C21.087511 35 24.249493 34.055077 27.192148 32.104401C31.583883 29.193043 34.396488 24.538887 34.937622 19.287579C35.06213 18.07942 34.992474 15.751866 34.797726 14.613582C33.969868 9.7743063 31.244352 5.5712037 27.192148 2.8849378C24.870205 1.3457816 22.417263 0.44133925 19.620632 0.09334787C18.594234 -0.034368113 16.283304 -0.030283561 15.277986 0.10100642ZM19.763739 1.5654005C21.448925 1.8069011 22.95796 2.2764814 24.54125 3.0519676C27.80294 4.6495476 30.350849 7.1956978 31.950331 10.456066C33.052219 12.702073 33.567387 14.944578 33.567387 17.494667C33.567387 20.046946 33.054043 22.279459 31.946173 24.545086C30.36179 27.785177 27.793165 30.350803 24.54125 31.941309C22.9716 32.709064 21.503555 33.16515 19.72727 33.436993C18.635225 33.604095 16.370029 33.604095 15.277986 33.436993C11.835552 32.910156 8.8241892 31.445469 6.4234715 29.130316C3.7282994 26.531139 2.1158352 23.401989 1.5552984 19.682835C1.3839645 18.546593 1.3839645 16.442743 1.5552984 15.306501C2.2727273 10.546729 4.8225322 6.5761557 8.8609505 3.9302247C9.1810074 3.7205253 9.9023743 3.3238838 10.464005 3.0487583C13.386237 1.6173328 16.576082 1.1085113 19.763739 1.5654005ZM15.55158 11.843072C14.780104 12.010686 14.064425 12.505137 14.175293 12.793976C14.197539 12.852035 14.284118 12.899518 14.36756 12.899518C15.112998 12.899518 15.457124 13.992726 15.322332 15.932243C15.258365 16.853315 15.146403 17.204517 14.869453 17.352728C14.455379 17.574318 13.816578 16.908092 13.18726 15.598257C12.201415 13.546486 11.876034 12.920233 11.658529 12.656486L11.430083 12.379246L9.7799826 12.402368C7.8959661 12.428699 7.709096 12.471439 7.6692715 12.884857C7.656507 13.016585 7.7012916 13.295359 7.7686872 13.504328C8.0812311 14.473029 9.8966122 17.653822 11.10711 19.353662C12.654658 21.526804 14.139771 22.636351 16.101175 23.084997C16.75223 23.233866 18.57826 23.261364 18.900942 23.127083C19.071547 23.056112 19.101233 22.993385 19.139526 22.622637C19.278328 21.27903 19.41954 20.84548 19.779129 20.659559C19.974096 20.558758 20.01144 20.56007 20.188683 20.674292C20.295975 20.743439 20.867599 21.278955 21.45899 21.86429C22.123173 22.521761 22.653004 22.983467 22.844833 23.072086C23.115801 23.197323 23.355553 23.219206 24.723597 23.243786C26.980989 23.284267 27.309652 23.183025 27.293022 22.452469C27.277851 21.78734 26.981207 21.373486 25.228773 19.57226C24.586107 18.911726 24.289682 18.553085 24.254601 18.393276C24.183266 18.068333 24.424475 17.629021 25.251457 16.577826C26.927452 14.447499 27.602577 13.127744 27.257721 12.656121C27.103455 12.445108 26.2861 12.368378 24.564665 12.403316C23.421782 12.42651 22.952053 12.461447 22.870214 12.529427C22.807852 12.58114 22.434696 13.25174 22.040897 14.01964C21.176132 15.705841 20.681604 16.491394 20.202978 16.939093C19.758926 17.354406 19.532887 17.380737 19.346527 17.038799C19.234056 16.832457 19.212612 16.527718 19.180592 14.686521C19.154041 13.160494 19.11779 12.525779 19.050396 12.40791C18.938435 12.211924 18.715458 12.09048 18.09234 11.886032C17.535595 11.703321 16.291693 11.682315 15.55158 11.843072Z" fill-rule="evenodd"/>
</svg>
